<svg width="72" height="12" viewBox="0 0 72 12" fill="none" xmlns="http://www.w3.org/2000/svg">
<path d="M44.7728 9.92004C43.968 10.7134 43.0305 11.11 41.9605 11.11C41.2976 11.11 40.6727 10.9794 40.0856 10.718C39.508 10.4567 39.0014 10.0974 38.5658 9.64004C38.1397 9.18271 37.7988 8.64604 37.5431 8.03004C37.2969 7.40471 37.1738 6.73271 37.1738 6.01404C37.1738 5.33271 37.2969 4.69337 37.5431 4.09604C37.7988 3.48937 38.1444 2.96204 38.58 2.51404C39.025 2.0567 39.5459 1.69737 40.1424 1.43604C40.739 1.16537 41.3876 1.03004 42.0883 1.03004C43.0352 1.03004 43.8449 1.22604 44.5172 1.61804C45.1989 2.01004 45.7103 2.53737 46.0512 3.20004L44.5882 4.26404C44.3325 3.76937 43.9727 3.39137 43.5087 3.13004C43.0542 2.86871 42.557 2.73804 42.0173 2.73804C41.5912 2.73804 41.1982 2.8267 40.8384 3.00404C40.488 3.18137 40.185 3.42404 39.9294 3.73204C39.6832 4.04004 39.489 4.39471 39.347 4.79604C39.2144 5.19737 39.1481 5.62204 39.1481 6.07004C39.1481 6.53671 39.2239 6.97537 39.3754 7.38604C39.5269 7.78737 39.7352 8.13737 40.0004 8.43604C40.2655 8.73471 40.578 8.97271 40.9378 9.15004C41.3071 9.31804 41.7048 9.40204 42.1309 9.40204C43.1063 9.40204 43.9869 8.94937 44.7728 8.04404V7.34404H42.7417V5.93004H46.3921V11.04H44.7728V9.92004Z" fill="#464646"/>
<path d="M51.3294 11.18C50.7329 11.18 50.1931 11.082 49.7102 10.886C49.2273 10.6807 48.8154 10.4054 48.4745 10.06C48.1336 9.71471 47.8684 9.31337 47.6791 8.85604C47.4991 8.39871 47.4092 7.91804 47.4092 7.41404C47.4092 6.89137 47.4991 6.40137 47.6791 5.94404C47.859 5.47737 48.1194 5.07137 48.4603 4.72604C48.8011 4.37137 49.2131 4.09137 49.696 3.88604C50.1884 3.68071 50.7376 3.57804 51.3436 3.57804C51.9496 3.57804 52.4894 3.68071 52.9628 3.88604C53.4458 4.09137 53.8529 4.36671 54.1844 4.71204C54.5253 5.05737 54.7809 5.45871 54.9514 5.91604C55.1313 6.37337 55.2212 6.84937 55.2212 7.34404C55.2212 7.46537 55.2165 7.58204 55.207 7.69404C55.207 7.80604 55.1976 7.89937 55.1786 7.97404H49.4261C49.4545 8.26337 49.5255 8.52004 49.6392 8.74404C49.7528 8.96804 49.8996 9.15937 50.0795 9.31804C50.2594 9.47671 50.463 9.59804 50.6902 9.68204C50.9175 9.76604 51.1542 9.80804 51.4004 9.80804C51.7792 9.80804 52.1343 9.71937 52.4657 9.54204C52.8066 9.35537 53.0386 9.11271 53.1617 8.81404L54.7951 9.26204C54.5205 9.82204 54.0802 10.284 53.4742 10.648C52.8776 11.0027 52.1627 11.18 51.3294 11.18ZM53.2611 6.75604C53.2138 6.20537 53.0055 5.76671 52.6362 5.44004C52.2763 5.10404 51.836 4.93604 51.3152 4.93604C51.0595 4.93604 50.8181 4.98271 50.5908 5.07604C50.373 5.16004 50.1789 5.28137 50.0085 5.44004C49.838 5.59871 49.696 5.79004 49.5824 6.01404C49.4782 6.23804 49.4166 6.48537 49.3977 6.75604H53.2611Z" fill="#464646"/>
<path d="M59.8322 11.18C59.2357 11.18 58.6959 11.082 58.213 10.886C57.7301 10.6807 57.3182 10.4054 56.9773 10.06C56.6364 9.71471 56.3713 9.31337 56.1819 8.85604C56.002 8.39871 55.912 7.91804 55.912 7.41404C55.912 6.89137 56.002 6.40137 56.1819 5.94404C56.3618 5.47737 56.6222 5.07137 56.9631 4.72604C57.304 4.37137 57.7159 4.09137 58.1988 3.88604C58.6912 3.68071 59.2404 3.57804 59.8464 3.57804C60.4525 3.57804 60.9922 3.68071 61.4657 3.88604C61.9486 4.09137 62.3558 4.36671 62.6872 4.71204C63.0281 5.05737 63.2838 5.45871 63.4542 5.91604C63.6341 6.37337 63.7241 6.84937 63.7241 7.34404C63.7241 7.46537 63.7193 7.58204 63.7099 7.69404C63.7099 7.80604 63.7004 7.89937 63.6815 7.97404H57.9289C57.9574 8.26337 58.0284 8.52004 58.142 8.74404C58.2556 8.96804 58.4024 9.15937 58.5823 9.31804C58.7622 9.47671 58.9658 9.59804 59.1931 9.68204C59.4203 9.76604 59.6571 9.80804 59.9033 9.80804C60.282 9.80804 60.6371 9.71937 60.9685 9.54204C61.3094 9.35537 61.5414 9.11271 61.6645 8.81404L63.298 9.26204C63.0234 9.82204 62.583 10.284 61.977 10.648C61.3805 11.0027 60.6655 11.18 59.8322 11.18ZM61.764 6.75604C61.7166 6.20537 61.5083 5.76671 61.139 5.44004C60.7792 5.10404 60.3388 4.93604 59.818 4.93604C59.5624 4.93604 59.3209 4.98271 59.0936 5.07604C58.8759 5.16004 58.6817 5.28137 58.5113 5.44004C58.3409 5.59871 58.1988 5.79004 58.0852 6.01404C57.981 6.23804 57.9195 6.48537 57.9005 6.75604H61.764Z" fill="#464646"/>
<path d="M69.9685 11.04L67.8095 7.86204L66.7869 8.85604V11.04H64.8836V0.820038H66.7869V7.02204L69.7697 3.71804H71.8008L69.0311 6.82604L71.9996 11.04H69.9685Z" fill="#464646"/>
<path d="M4.25644 1.10004H5.9893L9.82431 11.04H7.80738L6.86993 8.56204H3.3474L2.42416 11.04H0.407227L4.25644 1.10004ZM6.51484 7.20404L5.12287 3.29804L3.67409 7.20404H6.51484Z" fill="#2A7AE4"/>
<path d="M10.7316 0.820038H12.6349V8.68804C12.6349 8.95871 12.7012 9.16871 12.8337 9.31804C12.9663 9.46737 13.1557 9.54204 13.4019 9.54204C13.5155 9.54204 13.6386 9.52337 13.7712 9.48604C13.9132 9.44871 14.0458 9.40204 14.1689 9.34604L14.4245 10.774C14.1689 10.8954 13.8706 10.9887 13.5297 11.054C13.1888 11.1194 12.8811 11.152 12.6065 11.152C12.0099 11.152 11.5459 10.998 11.2145 10.69C10.8925 10.3727 10.7316 9.92471 10.7316 9.34604V0.820038Z" fill="#2A7AE4"/>
<path d="M17.5264 11.18C16.7594 11.18 16.177 10.9374 15.7793 10.452C15.3816 9.96671 15.1828 9.24804 15.1828 8.29604V3.70404H17.0861V7.89004C17.0861 9.01937 17.498 9.58404 18.3218 9.58404C18.6911 9.58404 19.0462 9.47671 19.3871 9.26204C19.7375 9.03804 20.0215 8.70204 20.2393 8.25404V3.70404H22.1426V8.88404C22.1426 9.08004 22.1758 9.22004 22.242 9.30404C22.3178 9.38804 22.4362 9.43471 22.5971 9.44404V11.04C22.4078 11.0774 22.2468 11.1007 22.1142 11.11C21.9911 11.1194 21.8775 11.124 21.7733 11.124C21.4324 11.124 21.1531 11.0494 20.9353 10.9C20.727 10.7414 20.6039 10.5267 20.566 10.256L20.5234 9.66804C20.192 10.172 19.7659 10.55 19.2451 10.802C18.7243 11.054 18.1514 11.18 17.5264 11.18Z" fill="#2A7AE4"/>
<path d="M28.4656 5.32804C27.888 5.33737 27.3719 5.44937 26.9174 5.66404C26.4629 5.86937 26.1362 6.18204 25.9373 6.60204V11.04H24.034V3.70404H25.7811V5.27204C25.9137 5.02004 26.0699 4.79604 26.2498 4.60004C26.4297 4.39471 26.6239 4.21737 26.8322 4.06804C27.0405 3.91871 27.2488 3.80671 27.4571 3.73204C27.6749 3.64804 27.8833 3.60604 28.0821 3.60604C28.1863 3.60604 28.262 3.60604 28.3094 3.60604C28.3662 3.60604 28.4183 3.61071 28.4656 3.62004V5.32804Z" fill="#2A7AE4"/>
<path d="M31.4609 11.18C31.1011 11.18 30.765 11.124 30.4525 11.012C30.14 10.8907 29.8701 10.7274 29.6429 10.522C29.4156 10.3074 29.2357 10.06 29.1031 9.78004C28.98 9.50004 28.9185 9.19204 28.9185 8.85604C28.9185 8.51071 28.9942 8.19337 29.1457 7.90404C29.3067 7.60537 29.5245 7.35337 29.7991 7.14804C30.0832 6.94271 30.4193 6.78404 30.8076 6.67204C31.1958 6.55071 31.6219 6.49004 32.0859 6.49004C32.4173 6.49004 32.7393 6.51804 33.0518 6.57404C33.3737 6.63004 33.6578 6.70937 33.904 6.81204V6.39204C33.904 5.90671 33.7619 5.53337 33.4779 5.27204C33.2033 5.01071 32.7914 4.88004 32.2421 4.88004C31.8444 4.88004 31.4562 4.95004 31.0774 5.09004C30.6987 5.23004 30.3104 5.43537 29.9127 5.70604L29.3304 4.51604C30.2868 3.89071 31.3189 3.57804 32.4268 3.57804C33.4968 3.57804 34.3254 3.83937 34.9124 4.36204C35.509 4.87537 35.8073 5.62204 35.8073 6.60204V8.88404C35.8073 9.08004 35.8404 9.22004 35.9067 9.30404C35.9825 9.38804 36.1008 9.43471 36.2618 9.44404V11.04C35.9399 11.1054 35.6605 11.138 35.4238 11.138C35.064 11.138 34.7846 11.0587 34.5858 10.9C34.3964 10.7414 34.278 10.5314 34.2307 10.27L34.1881 9.86404C33.8566 10.2934 33.4542 10.62 32.9807 10.844C32.5073 11.068 32.0007 11.18 31.4609 11.18ZM32.0007 9.80804C32.3226 9.80804 32.6256 9.75204 32.9097 9.64004C33.2033 9.52804 33.4305 9.37871 33.5915 9.19204C33.7998 9.03337 33.904 8.85604 33.904 8.66004V7.82004C33.6767 7.73604 33.4305 7.67071 33.1654 7.62404C32.9002 7.56804 32.6446 7.54004 32.3984 7.54004C31.906 7.54004 31.5035 7.65204 31.1911 7.87604C30.8786 8.09071 30.7223 8.36604 30.7223 8.70204C30.7223 9.01937 30.8454 9.28537 31.0916 9.50004C31.3378 9.70537 31.6409 9.80804 32.0007 9.80804Z" fill="#2A7AE4"/>
</svg>
